<?xml version="1.0" encoding="UTF-8" standalone="no"?>
<!DOCTYPE svg PUBLIC "-//W3C//DTD SVG 1.1//EN"
 "http://www.w3.org/Graphics/SVG/1.1/DTD/svg11.dtd">
<!-- Generated by graphviz version 14.0.4 (20251115.1723)
 -->
<!-- Pages: 1 -->
<svg width="401pt" height="332pt"
 viewBox="0.00 0.00 401.00 332.00" xmlns="http://www.w3.org/2000/svg" xmlns:xlink="http://www.w3.org/1999/xlink">
<g id="graph0" class="graph" transform="scale(1 1) rotate(0) translate(4 328)">
<polygon fill="white" stroke="none" points="-4,4 -4,-328 397.08,-328 397.08,4 -4,4"/>
<!-- [root] @api/hono#build -->
<g id="node1" class="node">
<title>[root] @api/hono#build</title>
<ellipse fill="none" stroke="black" cx="207.35" cy="-234" rx="98.95" ry="18"/>
<text xml:space="preserve" text-anchor="middle" x="207.35" y="-228.95" font-family="Times,serif" font-size="14.00">[root] @api/hono#build</text>
</g>
<!-- [root] @packages/env#build -->
<g id="node2" class="node">
<title>[root] @packages/env#build</title>
<ellipse fill="none" stroke="black" cx="116.35" cy="-162" rx="116.35" ry="18"/>
<text xml:space="preserve" text-anchor="middle" x="116.35" y="-156.95" font-family="Times,serif" font-size="14.00">[root] @packages/env#build</text>
</g>
<!-- [root] @api/hono#build&#45;&gt;[root] @packages/env#build -->
<g id="edge1" class="edge">
<title>[root] @api/hono#build&#45;&gt;[root] @packages/env#build</title>
<path fill="none" stroke="black" d="M185.32,-216.05C174.01,-207.35 160.02,-196.59 147.61,-187.04"/>
<polygon fill="black" stroke="black" points="149.75,-184.28 139.69,-180.95 145.48,-189.83 149.75,-184.28"/>
</g>
<!-- [root] @packages/tsconfig#build -->
<g id="node3" class="node">
<title>[root] @packages/tsconfig#build</title>
<ellipse fill="none" stroke="black" cx="260.35" cy="-90" rx="132.73" ry="18"/>
<text xml:space="preserve" text-anchor="middle" x="260.35" y="-84.95" font-family="Times,serif" font-size="14.00">[root] @packages/tsconfig#build</text>
</g>
<!-- [root] @api/hono#build&#45;&gt;[root] @packages/tsconfig#build -->
<g id="edge2" class="edge">
<title>[root] @api/hono#build&#45;&gt;[root] @packages/tsconfig#build</title>
<path fill="none" stroke="black" d="M220.69,-215.73C227.79,-205.78 236.11,-192.74 241.35,-180 249.31,-160.65 254.12,-137.5 256.91,-119.66"/>
<polygon fill="black" stroke="black" points="260.37,-120.17 258.32,-109.77 253.44,-119.18 260.37,-120.17"/>
</g>
<!-- [root] @packages/env#build&#45;&gt;[root] @packages/tsconfig#build -->
<g id="edge3" class="edge">
<title>[root] @packages/env#build&#45;&gt;[root] @packages/tsconfig#build</title>
<path fill="none" stroke="black" d="M150.48,-144.41C169.97,-134.93 194.65,-122.94 215.67,-112.72"/>
<polygon fill="black" stroke="black" points="217.15,-115.89 224.61,-108.37 214.09,-109.6 217.15,-115.89"/>
</g>
<!-- [root] ___ROOT___ -->
<g id="node4" class="node">
<title>[root] ___ROOT___</title>
<ellipse fill="none" stroke="black" cx="260.35" cy="-18" rx="87.18" ry="18"/>
<text xml:space="preserve" text-anchor="middle" x="260.35" y="-12.95" font-family="Times,serif" font-size="14.00">[root] ___ROOT___</text>
</g>
<!-- [root] @packages/tsconfig#build&#45;&gt;[root] ___ROOT___ -->
<g id="edge4" class="edge">
<title>[root] @packages/tsconfig#build&#45;&gt;[root] ___ROOT___</title>
<path fill="none" stroke="black" d="M260.35,-71.7C260.35,-64.41 260.35,-55.73 260.35,-47.54"/>
<polygon fill="black" stroke="black" points="263.85,-47.62 260.35,-37.62 256.85,-47.62 263.85,-47.62"/>
</g>
<!-- [root] @web/next#build -->
<g id="node5" class="node">
<title>[root] @web/next#build</title>
<ellipse fill="none" stroke="black" cx="207.35" cy="-306" rx="100.48" ry="18"/>
<text xml:space="preserve" text-anchor="middle" x="207.35" y="-300.95" font-family="Times,serif" font-size="14.00">[root] @web/next#build</text>
</g>
<!-- [root] @web/next#build&#45;&gt;[root] @api/hono#build -->
<g id="edge5" class="edge">
<title>[root] @web/next#build&#45;&gt;[root] @api/hono#build</title>
<path fill="none" stroke="black" d="M207.35,-287.7C207.35,-280.41 207.35,-271.73 207.35,-263.54"/>
<polygon fill="black" stroke="black" points="210.85,-263.62 207.35,-253.62 203.85,-263.62 210.85,-263.62"/>
</g>
<!-- [root] @web/next#build&#45;&gt;[root] @packages/env#build -->
<g id="edge6" class="edge">
<title>[root] @web/next#build&#45;&gt;[root] @packages/env#build</title>
<path fill="none" stroke="black" d="M150.78,-290.75C131.01,-282.76 110.89,-270.52 99.35,-252 87.93,-233.67 93.65,-209.41 101.41,-190.84"/>
<polygon fill="black" stroke="black" points="104.58,-192.31 105.6,-181.77 98.23,-189.38 104.58,-192.31"/>
</g>
<!-- [root] @web/next#build&#45;&gt;[root] @packages/tsconfig#build -->
<g id="edge7" class="edge">
<title>[root] @web/next#build&#45;&gt;[root] @packages/tsconfig#build</title>
<path fill="none" stroke="black" d="M263.93,-290.75C283.69,-282.76 303.81,-270.52 315.35,-252 342.48,-208.46 307.49,-149.9 282.18,-116.74"/>
<polygon fill="black" stroke="black" points="285.23,-114.96 276.29,-109.28 279.74,-119.3 285.23,-114.96"/>
</g>
</g>
</svg>
