<?xml version="1.0" encoding="UTF-8" standalone="no"?>
<!DOCTYPE svg PUBLIC "-//W3C//DTD SVG 1.1//EN"
 "http://www.w3.org/Graphics/SVG/1.1/DTD/svg11.dtd">
<!-- Generated by graphviz version 14.0.4 (20251115.1723)
 -->
<!-- Pages: 1 -->
<svg width="303pt" height="260pt"
 viewBox="0.00 0.00 303.00 260.00" xmlns="http://www.w3.org/2000/svg" xmlns:xlink="http://www.w3.org/1999/xlink">
<g id="graph0" class="graph" transform="scale(1 1) rotate(0) translate(4 256)">
<polygon fill="white" stroke="none" points="-4,4 -4,-256 298.68,-256 298.68,4 -4,4"/>
<!-- [root] @api/hono#build -->
<g id="node1" class="node">
<title>[root] @api/hono#build</title>
<ellipse fill="none" stroke="black" cx="98.95" cy="-162" rx="98.95" ry="18"/>
<text xml:space="preserve" text-anchor="middle" x="98.95" y="-156.95" font-family="Times,serif" font-size="14.00">[root] @api/hono#build</text>
</g>
<!-- [root] @packages/tsconfig#build -->
<g id="node2" class="node">
<title>[root] @packages/tsconfig#build</title>
<ellipse fill="none" stroke="black" cx="161.95" cy="-90" rx="132.73" ry="18"/>
<text xml:space="preserve" text-anchor="middle" x="161.95" y="-84.95" font-family="Times,serif" font-size="14.00">[root] @packages/tsconfig#build</text>
</g>
<!-- [root] @api/hono#build&#45;&gt;[root] @packages/tsconfig#build -->
<g id="edge1" class="edge">
<title>[root] @api/hono#build&#45;&gt;[root] @packages/tsconfig#build</title>
<path fill="none" stroke="black" d="M114.2,-144.05C121.6,-135.84 130.64,-125.79 138.86,-116.66"/>
<polygon fill="black" stroke="black" points="141.3,-119.17 145.39,-109.4 136.1,-114.49 141.3,-119.17"/>
</g>
<!-- [root] ___ROOT___ -->
<g id="node3" class="node">
<title>[root] ___ROOT___</title>
<ellipse fill="none" stroke="black" cx="161.95" cy="-18" rx="87.18" ry="18"/>
<text xml:space="preserve" text-anchor="middle" x="161.95" y="-12.95" font-family="Times,serif" font-size="14.00">[root] ___ROOT___</text>
</g>
<!-- [root] @packages/tsconfig#build&#45;&gt;[root] ___ROOT___ -->
<g id="edge2" class="edge">
<title>[root] @packages/tsconfig#build&#45;&gt;[root] ___ROOT___</title>
<path fill="none" stroke="black" d="M161.95,-71.7C161.95,-64.41 161.95,-55.73 161.95,-47.54"/>
<polygon fill="black" stroke="black" points="165.45,-47.62 161.95,-37.62 158.45,-47.62 165.45,-47.62"/>
</g>
<!-- [root] @web/next#build -->
<g id="node4" class="node">
<title>[root] @web/next#build</title>
<ellipse fill="none" stroke="black" cx="161.95" cy="-234" rx="100.48" ry="18"/>
<text xml:space="preserve" text-anchor="middle" x="161.95" y="-228.95" font-family="Times,serif" font-size="14.00">[root] @web/next#build</text>
</g>
<!-- [root] @web/next#build&#45;&gt;[root] @api/hono#build -->
<g id="edge3" class="edge">
<title>[root] @web/next#build&#45;&gt;[root] @api/hono#build</title>
<path fill="none" stroke="black" d="M146.7,-216.05C139.19,-207.71 129.99,-197.49 121.68,-188.25"/>
<polygon fill="black" stroke="black" points="124.36,-186.01 115.07,-180.91 119.16,-190.69 124.36,-186.01"/>
</g>
<!-- [root] @web/next#build&#45;&gt;[root] @packages/tsconfig#build -->
<g id="edge4" class="edge">
<title>[root] @web/next#build&#45;&gt;[root] @packages/tsconfig#build</title>
<path fill="none" stroke="black" d="M181.86,-216C191.41,-206.51 201.87,-193.82 206.95,-180 212.47,-164.98 212.47,-159.02 206.95,-144 203.22,-133.85 196.59,-124.31 189.55,-116.2"/>
<polygon fill="black" stroke="black" points="192.29,-114.01 182.89,-109.1 187.18,-118.79 192.29,-114.01"/>
</g>
</g>
</svg>
